<svg width="202" height="44" viewBox="0 0 202 44" fill="none" xmlns="http://www.w3.org/2000/svg">
<path d="M12.8272 33.1205C9.73861 33.1205 7.40545 32.4872 5.82784 31.2207C4.2502 29.9541 3.41694 28.2877 3.32806 26.2212H8.32765C8.41647 26.6656 8.54983 27.0544 8.72759 27.3877C8.90536 27.721 9.17201 27.9988 9.52748 28.2209C9.88302 28.4432 10.3274 28.621 10.8607 28.7542C11.394 28.8654 12.0495 28.9209 12.8272 28.9209C14.4271 28.9209 15.5714 28.7098 16.2602 28.2877C16.9713 27.8432 17.3268 27.221 17.3268 26.4212C17.3268 25.4434 16.8602 24.7102 15.9269 24.2213C15.0159 23.7102 13.5494 23.2548 11.5273 22.8547C10.3274 22.6326 9.2609 22.3437 8.32765 21.9882C7.3944 21.6104 6.60555 21.1438 5.96116 20.5883C5.31677 20.0106 4.82793 19.3218 4.49463 18.5218C4.16132 17.7219 3.99467 16.7664 3.99467 15.6554C3.99467 14.6555 4.19465 13.7444 4.59462 12.9223C5.0168 12.1002 5.60564 11.4002 6.36112 10.8225C7.13887 10.2226 8.07212 9.76704 9.16089 9.45598C10.2497 9.14492 11.4718 8.98932 12.8272 8.98932C14.2937 8.98932 15.5603 9.14492 16.6269 9.45598C17.6934 9.76704 18.5823 10.2115 19.2933 10.7892C20.0266 11.3669 20.5821 12.0557 20.9598 12.8557C21.3376 13.6556 21.5709 14.5555 21.6598 15.5554H16.6602C16.5046 14.7555 16.1492 14.1667 15.5936 13.7889C15.0382 13.389 14.116 13.189 12.8272 13.189C11.5162 13.189 10.5496 13.4001 9.92749 13.8223C9.30531 14.2445 8.99425 14.8111 8.99425 15.5221C8.99425 16.3665 9.41643 17.0442 10.2608 17.5553C11.1274 18.0441 12.4828 18.4663 14.3271 18.8218C15.5936 19.0662 16.7158 19.3662 17.6935 19.7217C18.6934 20.0772 19.5266 20.5328 20.1932 21.0883C20.8821 21.6438 21.4042 22.3326 21.7598 23.1548C22.1375 23.9547 22.3264 24.9212 22.3264 26.0545C22.3264 28.2099 21.4931 29.9319 19.8266 31.2207C18.1823 32.4872 15.8492 33.1205 12.8272 33.1205Z" fill="white"/>
<path d="M23.4981 9.38931H31.664C33.4195 9.38931 34.986 9.63373 36.3636 10.1226C37.7413 10.5892 38.9079 11.2891 39.8633 12.2223C40.8188 13.1556 41.5521 14.3222 42.0631 15.722C42.5742 17.1219 42.8297 18.7329 42.8297 20.5549V21.2216C42.8297 23.0881 42.5631 24.7435 42.0298 26.1878C41.5187 27.6099 40.7632 28.8098 39.7633 29.7875C38.7856 30.743 37.5858 31.4762 36.1636 31.9873C34.7416 32.4761 33.1306 32.7206 31.3307 32.7206H23.4981V9.38931ZM30.9975 28.5876C31.8863 28.5876 32.7307 28.4654 33.5305 28.2209C34.3305 27.9543 35.0304 27.5321 35.6304 26.9544C36.2525 26.3767 36.7414 25.6212 37.0969 24.6879C37.4524 23.7547 37.6302 22.5992 37.6302 21.2216V20.5549C37.6302 19.2662 37.4635 18.1774 37.1302 17.2886C36.7969 16.3776 36.3414 15.6443 35.7637 15.0888C35.2082 14.5333 34.5416 14.1333 33.7638 13.8889C33.0084 13.6445 32.1974 13.5222 31.3307 13.5222H28.4976V28.5876H30.9975Z" fill="white"/>
<path d="M46.6614 33.1205C45.8838 33.1205 45.2171 32.8428 44.6616 32.2873C44.1061 31.7318 43.8284 31.0652 43.8284 30.2874C43.8284 29.4653 44.1061 28.7876 44.6616 28.2543C45.2171 27.721 45.8838 27.4543 46.6614 27.4543C47.4391 27.4543 48.1057 27.721 48.6613 28.2543C49.2167 28.7876 49.4945 29.4653 49.4945 30.2874C49.4945 31.0652 49.2167 31.7318 48.6613 32.2873C48.1057 32.8428 47.4391 33.1205 46.6614 33.1205Z" fill="#F5F5F5"/>
<path d="M60.9791 33.1205C59.4459 33.1205 58.035 32.8983 56.7462 32.4539C55.4796 32.0095 54.3797 31.3207 53.4465 30.3874C52.5133 29.432 51.7799 28.1988 51.2467 26.6877C50.7356 25.1768 50.4801 23.3548 50.4801 21.2216V20.555C50.4801 18.5107 50.7467 16.7664 51.28 15.3221C51.8355 13.8556 52.5799 12.6557 53.5131 11.7224C54.4686 10.7892 55.5796 10.1003 56.8462 9.65598C58.135 9.21156 59.5126 8.98932 60.9791 8.98932C62.2901 8.98932 63.5233 9.14492 64.6788 9.45598C65.8343 9.76704 66.8453 10.2559 67.7119 10.9225C68.6007 11.5669 69.312 12.4001 69.8452 13.4223C70.4005 14.4444 70.7227 15.6554 70.8118 17.0553H65.6121C65.3677 15.7221 64.8344 14.7444 64.0122 14.1222C63.19 13.5 62.179 13.189 60.9791 13.189C60.2903 13.189 59.6237 13.3112 58.9793 13.5556C58.3572 13.8 57.8017 14.2111 57.3128 14.7888C56.824 15.3665 56.424 16.1221 56.1129 17.0553C55.8241 17.9886 55.6796 19.1551 55.6796 20.555V21.2216C55.6796 22.6881 55.8352 23.9214 56.1462 24.9213C56.4573 25.899 56.8573 26.6877 57.3461 27.2877C57.8572 27.8655 58.4238 28.2877 59.046 28.5542C59.6903 28.7987 60.3348 28.9209 60.9791 28.9209C62.2457 28.9209 63.29 28.5987 64.1122 27.9544C64.9344 27.2877 65.4343 26.3212 65.6121 25.0546H70.8118C70.7006 26.5211 70.3784 27.7655 69.8452 28.7876C69.312 29.8097 68.6121 30.643 67.7454 31.2873C66.8786 31.9318 65.8676 32.3984 64.7121 32.6872C63.5567 32.9761 62.3124 33.1205 60.9791 33.1205Z" fill="white"/>
<path d="M81.8175 33.1205C80.3506 33.1205 78.9507 32.8983 77.6177 32.4539C76.3062 32.0095 75.1401 31.3096 74.118 30.3541C73.1179 29.3987 72.3182 28.1765 71.718 26.6877C71.1179 25.1768 70.8178 23.3548 70.8178 21.2216V20.555C70.8178 18.5107 71.1179 16.7664 71.718 15.3221C72.3182 13.8556 73.1179 12.6557 74.118 11.7224C75.1401 10.7892 76.3062 10.1003 77.6177 9.65598C78.9507 9.21156 80.3506 8.98932 81.8175 8.98932C83.2837 8.98932 84.6722 9.21156 85.9837 9.65598C87.3166 10.1003 88.4834 10.7892 89.4834 11.7224C90.5056 12.6557 91.3161 13.8556 91.9162 15.3221C92.5164 16.7664 92.8164 18.5107 92.8164 20.555V21.2216C92.8164 23.3548 92.5164 25.1768 91.9162 26.6877C91.3161 28.1765 90.5056 29.3987 89.4834 30.3541C88.4834 31.3096 87.3166 32.0095 85.9837 32.4539C84.6722 32.8983 83.2837 33.1205 81.8175 33.1205ZM81.8175 28.9209C82.5723 28.9209 83.2951 28.7987 83.9836 28.5542C84.695 28.2877 85.3166 27.8544 85.8504 27.2544C86.3836 26.6545 86.8055 25.8656 87.117 24.888C87.4499 23.9102 87.6167 22.6881 87.6167 21.2216V20.555C87.6167 19.1774 87.4499 18.0219 87.117 17.0886C86.8055 16.1554 86.3836 15.3999 85.8504 14.8222C85.3166 14.2445 84.695 13.8333 83.9836 13.5889C83.2951 13.3223 82.5723 13.189 81.8175 13.189C81.0619 13.189 80.3285 13.3223 79.6171 13.5889C78.9286 13.8333 78.3177 14.2445 77.7845 14.8222C77.2507 15.3999 76.8173 16.1554 76.4844 17.0886C76.173 18.0219 76.0176 19.1774 76.0176 20.555V21.2216C76.0176 22.6881 76.173 23.9102 76.4844 24.888C76.8173 25.8656 77.2507 26.6545 77.7845 27.2544C78.3177 27.8544 78.9286 28.2877 79.6171 28.5542C80.3285 28.7987 81.0619 28.9209 81.8175 28.9209Z" fill="white"/>
<path d="M94.1413 9.38931H102.308C104.063 9.38931 105.629 9.63373 107.007 10.1226C108.385 10.5892 109.552 11.2891 110.507 12.2223C111.462 13.1556 112.195 14.3222 112.706 15.722C113.218 17.1219 113.473 18.7329 113.473 20.5549V21.2216C113.473 23.0881 113.207 24.7435 112.673 26.1878C112.162 27.6099 111.407 28.8098 110.407 29.7875C109.429 30.743 108.229 31.4762 106.807 31.9873C105.385 32.4761 103.774 32.7206 101.974 32.7206H94.1413V9.38931ZM101.641 28.5876C102.53 28.5876 103.374 28.4654 104.174 28.2209C104.974 27.9543 105.674 27.5321 106.274 26.9544C106.896 26.3767 107.385 25.6212 107.74 24.6879C108.096 23.7547 108.274 22.5992 108.274 21.2216V20.5549C108.274 19.2662 108.107 18.1774 107.774 17.2886C107.44 16.3776 106.985 15.6443 106.407 15.0888C105.852 14.5333 105.185 14.1333 104.408 13.8889C103.652 13.6445 102.841 13.5222 101.974 13.5222H99.1414V28.5876H101.641Z" fill="white"/>
<path d="M114.805 9.38931H131.137V13.5222H119.838V18.7218H130.137V22.7214H119.838V28.5876H131.137V32.7206H114.805V9.38931Z" fill="white"/>
<path d="M1.51258 13.0867L0.312683 11.0084L5.40005 2.62149L6.61994 4.7344L2.88163 10.8184L2.96163 10.9569L10.0996 10.7614L11.3195 12.8743L1.51258 13.0867Z" fill="#D9D9D9"/>
<path d="M12.3443 9.46541L16.0827 3.38147L16.0027 3.24292L8.86464 3.43841L7.64478 1.3255L17.4517 1.11316L18.6516 3.19143L13.5642 11.5783L12.3443 9.46541Z" fill="#D9D9D9"/>
<path d="M142.99 29.403L151.075 22.44C151.823 21.78 152.461 21.208 152.989 20.724C153.517 20.218 153.946 19.756 154.276 19.338C154.606 18.92 154.837 18.513 154.969 18.117C155.123 17.721 155.2 17.292 155.2 16.83C155.2 15.884 154.936 15.125 154.408 14.553C153.88 13.959 153.099 13.662 152.065 13.662C150.877 13.662 149.942 13.992 149.26 14.652C148.6 15.29 148.27 16.401 148.27 17.985H143.32C143.32 15.367 144.057 13.299 145.531 11.781C147.027 10.263 149.205 9.504 152.065 9.504C153.407 9.504 154.573 9.691 155.563 10.065C156.575 10.417 157.422 10.923 158.104 11.583C158.786 12.221 159.292 12.991 159.622 13.893C159.974 14.795 160.15 15.774 160.15 16.83C160.15 17.622 160.007 18.381 159.721 19.107C159.435 19.811 159.039 20.493 158.533 21.153C158.049 21.813 157.477 22.462 156.817 23.1C156.157 23.716 155.453 24.332 154.705 24.948L149.953 28.908H160.48V33H142.99V29.403ZM179.263 33.396C178.009 33.396 176.832 33.198 175.732 32.802C174.654 32.384 173.719 31.713 172.927 30.789C172.135 29.843 171.508 28.611 171.046 27.093C170.584 25.553 170.353 23.672 170.353 21.45V20.79C170.353 18.722 170.584 16.973 171.046 15.543C171.508 14.113 172.135 12.958 172.927 12.078C173.719 11.176 174.654 10.527 175.732 10.131C176.832 9.713 178.009 9.504 179.263 9.504C180.517 9.504 181.683 9.713 182.761 10.131C183.861 10.527 184.807 11.176 185.599 12.078C186.391 12.958 187.018 14.113 187.48 15.543C187.942 16.973 188.173 18.722 188.173 20.79V21.45C188.173 23.672 187.942 25.553 187.48 27.093C187.018 28.611 186.391 29.843 185.599 30.789C184.807 31.713 183.861 32.384 182.761 32.802C181.683 33.198 180.517 33.396 179.263 33.396ZM179.263 29.238C179.813 29.238 180.33 29.128 180.814 28.908C181.298 28.688 181.716 28.292 182.068 27.72C182.442 27.126 182.728 26.323 182.926 25.311C183.124 24.299 183.223 23.012 183.223 21.45V20.79C183.223 19.382 183.124 18.227 182.926 17.325C182.728 16.401 182.442 15.675 182.068 15.147C181.716 14.597 181.298 14.212 180.814 13.992C180.33 13.772 179.813 13.662 179.263 13.662C178.691 13.662 178.163 13.772 177.679 13.992C177.217 14.212 176.799 14.597 176.425 15.147C176.073 15.675 175.798 16.401 175.6 17.325C175.402 18.227 175.303 19.382 175.303 20.79V21.45C175.303 23.012 175.402 24.299 175.6 25.311C175.798 26.323 176.073 27.126 176.425 27.72C176.799 28.292 177.217 28.688 177.679 28.908C178.163 29.128 178.691 29.238 179.263 29.238Z" fill="white"/>
<path d="M165.252 33.396C164.482 33.396 163.822 33.121 163.272 32.571C162.722 32.021 162.447 31.361 162.447 30.591C162.447 29.777 162.722 29.106 163.272 28.578C163.822 28.05 164.482 27.786 165.252 27.786C166.022 27.786 166.682 28.05 167.232 28.578C167.782 29.106 168.057 29.777 168.057 30.591C168.057 31.361 167.782 32.021 167.232 32.571C166.682 33.121 166.022 33.396 165.252 33.396Z" fill="#F5F5F5"/>
<path d="M174.2 42.8845L173 40.8062L178.087 32.4193L179.308 34.5322L175.569 40.6162L175.649 40.7547L182.787 40.5592L184.007 42.6721L174.2 42.8845Z" fill="#D9D9D9"/>
<path d="M187.601 43.9921L184.319 25.1499L186.31 24L189.592 42.8421L187.601 43.9921Z" fill="#D9D9D9"/>
<path d="M194.724 33.6676L198.462 27.5837L198.382 27.4452L191.244 27.6407L190.024 25.5278L199.831 25.3154L201.031 27.3937L195.944 35.7806L194.724 33.6676Z" fill="#D9D9D9"/>
</svg>
