<svg width="202" height="43" viewBox="0 0 202 43" fill="none" xmlns="http://www.w3.org/2000/svg">
<path d="M12.8272 32.1205C9.73861 32.1205 7.40545 31.4872 5.82784 30.2207C4.2502 28.9541 3.41694 27.2877 3.32806 25.2212H8.32765C8.41647 25.6656 8.54983 26.0544 8.72759 26.3877C8.90536 26.721 9.17201 26.9988 9.52748 27.2209C9.88302 27.4432 10.3274 27.621 10.8607 27.7542C11.394 27.8654 12.0495 27.9209 12.8272 27.9209C14.4271 27.9209 15.5714 27.7098 16.2602 27.2877C16.9713 26.8432 17.3268 26.221 17.3268 25.4212C17.3268 24.4434 16.8602 23.7102 15.9269 23.2213C15.0159 22.7102 13.5494 22.2548 11.5273 21.8547C10.3274 21.6326 9.2609 21.3437 8.32765 20.9882C7.3944 20.6104 6.60555 20.1438 5.96116 19.5883C5.31677 19.0106 4.82793 18.3218 4.49463 17.5218C4.16132 16.7219 3.99467 15.7664 3.99467 14.6554C3.99467 13.6555 4.19465 12.7444 4.59462 11.9223C5.0168 11.1002 5.60564 10.4002 6.36112 9.82253C7.13887 9.22258 8.07212 8.76704 9.16089 8.45598C10.2497 8.14492 11.4718 7.98932 12.8272 7.98932C14.2937 7.98932 15.5603 8.14492 16.6269 8.45598C17.6934 8.76704 18.5823 9.21146 19.2933 9.78917C20.0266 10.3669 20.5821 11.0557 20.9598 11.8557C21.3376 12.6556 21.5709 13.5555 21.6598 14.5554H16.6602C16.5046 13.7555 16.1492 13.1667 15.5936 12.7889C15.0382 12.389 14.116 12.189 12.8272 12.189C11.5162 12.189 10.5496 12.4001 9.92749 12.8223C9.30531 13.2445 8.99425 13.8111 8.99425 14.5221C8.99425 15.3665 9.41643 16.0442 10.2608 16.5553C11.1274 17.0441 12.4828 17.4663 14.3271 17.8218C15.5936 18.0662 16.7158 18.3662 17.6935 18.7217C18.6934 19.0772 19.5266 19.5328 20.1932 20.0883C20.8821 20.6438 21.4042 21.3326 21.7598 22.1548C22.1375 22.9547 22.3264 23.9212 22.3264 25.0545C22.3264 27.2099 21.4931 28.9319 19.8266 30.2207C18.1823 31.4872 15.8492 32.1205 12.8272 32.1205Z" fill="white"/>
<path d="M23.4981 8.38931H31.664C33.4195 8.38931 34.986 8.63373 36.3636 9.12256C37.7413 9.58921 38.9079 10.2891 39.8633 11.2223C40.8188 12.1556 41.5521 13.3222 42.0631 14.722C42.5742 16.1219 42.8297 17.7329 42.8297 19.5549V20.2216C42.8297 22.0881 42.5631 23.7435 42.0298 25.1878C41.5187 26.6099 40.7632 27.8098 39.7633 28.7875C38.7856 29.743 37.5858 30.4762 36.1636 30.9873C34.7416 31.4761 33.1306 31.7206 31.3307 31.7206H23.4981V8.38931ZM30.9975 27.5876C31.8863 27.5876 32.7307 27.4654 33.5305 27.2209C34.3305 26.9543 35.0304 26.5321 35.6304 25.9544C36.2525 25.3767 36.7414 24.6212 37.0969 23.6879C37.4524 22.7547 37.6302 21.5992 37.6302 20.2216V19.5549C37.6302 18.2662 37.4635 17.1774 37.1302 16.2886C36.7969 15.3776 36.3414 14.6443 35.7637 14.0888C35.2082 13.5333 34.5416 13.1333 33.7638 12.8889C33.0084 12.6445 32.1974 12.5222 31.3307 12.5222H28.4976V27.5876H30.9975Z" fill="white"/>
<path d="M46.6614 32.1205C45.8838 32.1205 45.2171 31.8428 44.6616 31.2873C44.1061 30.7318 43.8284 30.0652 43.8284 29.2874C43.8284 28.4653 44.1061 27.7876 44.6616 27.2543C45.2171 26.721 45.8838 26.4543 46.6614 26.4543C47.4391 26.4543 48.1057 26.721 48.6613 27.2543C49.2167 27.7876 49.4945 28.4653 49.4945 29.2874C49.4945 30.0652 49.2167 30.7318 48.6613 31.2873C48.1057 31.8428 47.4391 32.1205 46.6614 32.1205Z" fill="#4191FF"/>
<path d="M60.9791 32.1205C59.4459 32.1205 58.035 31.8983 56.7462 31.4539C55.4796 31.0095 54.3797 30.3207 53.4465 29.3874C52.5133 28.432 51.7799 27.1988 51.2467 25.6877C50.7356 24.1768 50.4801 22.3548 50.4801 20.2216V19.555C50.4801 17.5107 50.7467 15.7664 51.28 14.3221C51.8355 12.8556 52.5799 11.6557 53.5131 10.7224C54.4686 9.78917 55.5796 9.10034 56.8462 8.65598C58.135 8.21156 59.5126 7.98932 60.9791 7.98932C62.2901 7.98932 63.5233 8.14492 64.6788 8.45598C65.8343 8.76704 66.8453 9.25587 67.7119 9.92253C68.6007 10.5669 69.3121 11.4001 69.8452 12.4223C70.4005 13.4444 70.7227 14.6554 70.8118 16.0553H65.6121C65.3677 14.7221 64.8344 13.7444 64.0122 13.1222C63.19 12.5 62.179 12.189 60.9791 12.189C60.2903 12.189 59.6237 12.3112 58.9793 12.5556C58.3572 12.8 57.8017 13.2111 57.3128 13.7888C56.824 14.3665 56.424 15.1221 56.1129 16.0553C55.8241 16.9886 55.6796 18.1551 55.6796 19.555V20.2216C55.6796 21.6881 55.8352 22.9214 56.1462 23.9213C56.4573 24.899 56.8573 25.6877 57.3461 26.2877C57.8572 26.8655 58.4238 27.2877 59.046 27.5542C59.6903 27.7987 60.3348 27.9209 60.9791 27.9209C62.2457 27.9209 63.29 27.5987 64.1122 26.9544C64.9344 26.2877 65.4343 25.3212 65.6121 24.0546H70.8118C70.7006 25.5211 70.3784 26.7655 69.8452 27.7876C69.3121 28.8097 68.6121 29.643 67.7454 30.2873C66.8786 30.9318 65.8676 31.3984 64.7121 31.6872C63.5567 31.9761 62.3124 32.1205 60.9791 32.1205Z" fill="white"/>
<path d="M81.8175 32.1205C80.3506 32.1205 78.9507 31.8983 77.6177 31.4539C76.3062 31.0095 75.1401 30.3096 74.118 29.3541C73.1179 28.3987 72.3182 27.1765 71.718 25.6877C71.1179 24.1768 70.8178 22.3548 70.8178 20.2216V19.555C70.8178 17.5107 71.1179 15.7664 71.718 14.3221C72.3182 12.8556 73.1179 11.6557 74.118 10.7224C75.1401 9.78917 76.3062 9.10034 77.6177 8.65598C78.9507 8.21156 80.3506 7.98932 81.8175 7.98932C83.2837 7.98932 84.6722 8.21156 85.9837 8.65598C87.3166 9.10034 88.4834 9.78917 89.4834 10.7224C90.5056 11.6557 91.3161 12.8556 91.9162 14.3221C92.5164 15.7664 92.8164 17.5107 92.8164 19.555V20.2216C92.8164 22.3548 92.5164 24.1768 91.9162 25.6877C91.3161 27.1765 90.5056 28.3987 89.4834 29.3541C88.4834 30.3096 87.3166 31.0095 85.9837 31.4539C84.6722 31.8983 83.2837 32.1205 81.8175 32.1205ZM81.8175 27.9209C82.5723 27.9209 83.2951 27.7987 83.9836 27.5542C84.695 27.2877 85.3166 26.8544 85.8504 26.2544C86.3836 25.6545 86.8055 24.8656 87.117 23.888C87.4499 22.9102 87.6167 21.6881 87.6167 20.2216V19.555C87.6167 18.1773 87.4499 17.0219 87.117 16.0886C86.8055 15.1554 86.3836 14.3999 85.8504 13.8222C85.3166 13.2445 84.695 12.8333 83.9836 12.5889C83.2951 12.3223 82.5723 12.189 81.8175 12.189C81.0619 12.189 80.3285 12.3223 79.6171 12.5889C78.9286 12.8333 78.3177 13.2445 77.7845 13.8222C77.2507 14.3999 76.8173 15.1554 76.4844 16.0886C76.173 17.0219 76.0176 18.1773 76.0176 19.555V20.2216C76.0176 21.6881 76.173 22.9102 76.4844 23.888C76.8173 24.8656 77.2507 25.6545 77.7845 26.2544C78.3177 26.8544 78.9286 27.2877 79.6171 27.5542C80.3285 27.7987 81.0619 27.9209 81.8175 27.9209Z" fill="white"/>
<path d="M94.1413 8.38931H102.308C104.063 8.38931 105.629 8.63373 107.007 9.12256C108.385 9.58921 109.552 10.2891 110.507 11.2223C111.462 12.1556 112.195 13.3222 112.706 14.722C113.218 16.1219 113.473 17.7329 113.473 19.5549V20.2216C113.473 22.0881 113.207 23.7435 112.673 25.1878C112.162 26.6099 111.407 27.8098 110.407 28.7875C109.429 29.743 108.229 30.4762 106.807 30.9873C105.385 31.4761 103.774 31.7206 101.974 31.7206H94.1413V8.38931ZM101.641 27.5876C102.53 27.5876 103.374 27.4654 104.174 27.2209C104.974 26.9543 105.674 26.5321 106.274 25.9544C106.896 25.3767 107.385 24.6212 107.74 23.6879C108.096 22.7547 108.274 21.5992 108.274 20.2216V19.5549C108.274 18.2662 108.107 17.1774 107.774 16.2886C107.44 15.3776 106.985 14.6443 106.407 14.0888C105.852 13.5333 105.185 13.1333 104.408 12.8889C103.652 12.6445 102.841 12.5222 101.974 12.5222H99.1414V27.5876H101.641Z" fill="white"/>
<path d="M114.805 8.38931H131.137V12.5222H119.838V17.7218H130.137V21.7214H119.838V27.5876H131.137V31.7206H114.805V8.38931Z" fill="white"/>
<path d="M1.51258 12.0867L0.312683 10.0084L5.40005 1.62149L6.61994 3.7344L2.88163 9.81837L2.96163 9.95689L10.0996 9.76144L11.3195 11.8743L1.51258 12.0867Z" fill="#D45366"/>
<path d="M12.3443 8.46541L16.0827 2.38147L16.0027 2.24292L8.86464 2.43841L7.64478 0.325501L17.4517 0.113159L18.6516 2.19143L13.5642 10.5783L12.3443 8.46541Z" fill="#D45366"/>
<path d="M142.99 28.403L151.075 21.44C151.823 20.78 152.461 20.208 152.989 19.724C153.517 19.218 153.946 18.756 154.276 18.338C154.606 17.92 154.837 17.513 154.969 17.117C155.123 16.721 155.2 16.292 155.2 15.83C155.2 14.884 154.936 14.125 154.408 13.553C153.88 12.959 153.099 12.662 152.065 12.662C150.877 12.662 149.942 12.992 149.26 13.652C148.6 14.29 148.27 15.401 148.27 16.985H143.32C143.32 14.367 144.057 12.299 145.531 10.781C147.027 9.263 149.205 8.504 152.065 8.504C153.407 8.504 154.573 8.691 155.563 9.065C156.575 9.417 157.422 9.923 158.104 10.583C158.786 11.221 159.292 11.991 159.622 12.893C159.974 13.795 160.15 14.774 160.15 15.83C160.15 16.622 160.007 17.381 159.721 18.107C159.435 18.811 159.039 19.493 158.533 20.153C158.049 20.813 157.477 21.462 156.817 22.1C156.157 22.716 155.453 23.332 154.705 23.948L149.953 27.908H160.48V32H142.99V28.403ZM179.263 32.396C178.009 32.396 176.832 32.198 175.732 31.802C174.654 31.384 173.719 30.713 172.927 29.789C172.135 28.843 171.508 27.611 171.046 26.093C170.584 24.553 170.353 22.672 170.353 20.45V19.79C170.353 17.722 170.584 15.973 171.046 14.543C171.508 13.113 172.135 11.958 172.927 11.078C173.719 10.176 174.654 9.527 175.732 9.131C176.832 8.713 178.009 8.504 179.263 8.504C180.517 8.504 181.683 8.713 182.761 9.131C183.861 9.527 184.807 10.176 185.599 11.078C186.391 11.958 187.018 13.113 187.48 14.543C187.942 15.973 188.173 17.722 188.173 19.79V20.45C188.173 22.672 187.942 24.553 187.48 26.093C187.018 27.611 186.391 28.843 185.599 29.789C184.807 30.713 183.861 31.384 182.761 31.802C181.683 32.198 180.517 32.396 179.263 32.396ZM179.263 28.238C179.813 28.238 180.33 28.128 180.814 27.908C181.298 27.688 181.716 27.292 182.068 26.72C182.442 26.126 182.728 25.323 182.926 24.311C183.124 23.299 183.223 22.012 183.223 20.45V19.79C183.223 18.382 183.124 17.227 182.926 16.325C182.728 15.401 182.442 14.675 182.068 14.147C181.716 13.597 181.298 13.212 180.814 12.992C180.33 12.772 179.813 12.662 179.263 12.662C178.691 12.662 178.163 12.772 177.679 12.992C177.217 13.212 176.799 13.597 176.425 14.147C176.073 14.675 175.798 15.401 175.6 16.325C175.402 17.227 175.303 18.382 175.303 19.79V20.45C175.303 22.012 175.402 23.299 175.6 24.311C175.798 25.323 176.073 26.126 176.425 26.72C176.799 27.292 177.217 27.688 177.679 27.908C178.163 28.128 178.691 28.238 179.263 28.238Z" fill="white"/>
<path d="M165.252 32.396C164.482 32.396 163.822 32.121 163.272 31.571C162.722 31.021 162.447 30.361 162.447 29.591C162.447 28.777 162.722 28.106 163.272 27.578C163.822 27.05 164.482 26.786 165.252 26.786C166.022 26.786 166.682 27.05 167.232 27.578C167.782 28.106 168.057 28.777 168.057 29.591C168.057 30.361 167.782 31.021 167.232 31.571C166.682 32.121 166.022 32.396 165.252 32.396Z" fill="#4191FF"/>
<path d="M174.2 41.8845L173 39.8062L178.087 31.4193L179.308 33.5322L175.569 39.6162L175.649 39.7547L182.787 39.5592L184.007 41.6721L174.2 41.8845Z" fill="#D45366"/>
<path d="M187.601 42.9921L184.319 24.1499L186.31 23L189.592 41.8421L187.601 42.9921Z" fill="#D45366"/>
<path d="M194.724 32.6676L198.462 26.5837L198.382 26.4452L191.244 26.6407L190.024 24.5278L199.831 24.3154L201.031 26.3937L195.944 34.7806L194.724 32.6676Z" fill="#D45366"/>
</svg>
